<svg width="147" height="147" viewBox="0 0 147 147" fill="none" xmlns="http://www.w3.org/2000/svg">
<path d="M0 6.84326C21.3854 25.5982 43.3267 21.4495 70.5717 14.7986C72.8711 14.2256 75.1979 13.7688 77.5433 13.43L52.9502 38.8999C22.0697 40.1189 14.927 28.6991 0 6.84326Z" fill="url(#paint0_linear_6005_4230)"/>
<path d="M10.2871 32.1849C25.6204 40.739 40.7399 45.7432 54.7259 31.3508L48.5455 51.1965C31.5869 55.5591 21.1723 42.514 10.2871 32.1849Z" fill="url(#paint1_linear_6005_4230)"/>
<path d="M96.7266 80.8152C95.2938 70.593 85.0502 36.1412 134.75 48.3309C134.75 48.3309 130.216 5.06829 76.4105 14.1143C35.2865 21.0645 24.9573 66.5726 26.0908 82.5474C28.0508 108.297 44.299 124.473 56.5781 131.63C56.5781 131.63 48.0108 114.134 60.1576 97.6883C70.2729 84.0658 103.399 95.5497 103.399 95.5497C103.399 95.5497 98.1381 91.016 96.7266 80.8152Z" fill="url(#paint2_linear_6005_4230)"/>
<path d="M53.3341 66.6103C47.6884 59.5318 59.9208 20.8029 101.344 14.0451L102.478 13.9168C93.9058 12.4241 85.1367 12.4676 76.58 14.0451C35.2635 20.8029 24.9344 66.5034 26.0678 82.4783C27.6717 106.858 43.0697 123.729 56.5591 131.612C56.5591 131.612 80.4508 100.527 53.3341 66.6103Z" fill="url(#paint3_linear_6005_4230)"/>
<path d="M131.007 47.3898C132.354 47.6678 133.723 47.9672 135.156 48.3308C135.156 48.3308 135.156 47.5823 134.878 46.3419C133.56 46.5811 132.265 46.9317 131.007 47.3898V47.3898Z" fill="url(#paint4_linear_6005_4230)"/>
<path d="M113.215 109.493C116.149 115.995 118.576 124.234 119.904 131.243C101.944 142.313 77.2546 143.883 56.5781 131.629C47.8315 111.741 50.6628 94.0313 67.2578 86.6961C83.8528 79.361 104.468 89.6046 113.215 109.493Z" fill="url(#paint5_linear_6005_4230)"/>
<path opacity="0.09" d="M64.5174 88.0902C50.4672 96.1953 48.58 113.116 56.5781 131.636C57.7115 129.947 70.9972 112.042 64.5174 88.0902Z" fill="white"/>
<path d="M95.5497 64.9473C96.3229 60.5375 98.2761 56.4195 101.202 53.0307C104.127 49.6419 107.916 47.1088 112.166 45.7004L123.522 71.7692C112.038 72.924 104.574 73.0737 95.5497 64.9473Z" fill="url(#paint6_linear_6005_4230)"/>
<path d="M110.178 46.5131C118.415 44.4578 127.072 44.8442 135.092 47.6251C135.263 66.7222 122.261 75.2764 105.794 78.0779C117.043 69.2243 120.251 57.0988 110.178 46.5131Z" fill="url(#paint7_linear_6005_4230)"/>
<path d="M135.156 48.3307C135.156 48.3307 132.269 6.75755 77.4585 13.4298C48.3317 16.9584 35.1797 45.3154 35.1797 45.3154C34.367 66.8076 80.4739 79.5319 95.0587 67.8555C99.2074 56.393 102.629 40.3753 135.156 48.3307Z" fill="url(#paint8_linear_6005_4230)"/>
<path opacity="0.48" d="M48.1391 59.8576C42.7928 53.1212 46.749 45.5722 52.4162 39.1138C60.9703 29.4904 71.1497 20.8079 87.2957 18.8405C102.265 17.0227 119.138 25.5127 127.372 29.084C119.973 19.2682 105.537 10.0083 77.4584 13.43C48.3316 16.9586 35.1796 45.3155 35.1796 45.3155C34.8374 54.4043 42.8997 61.932 53.4213 66.7009C52.7583 65.6316 50.577 62.9371 48.1391 59.8576Z" fill="white"/>
<path d="M107.718 15.4188C123.95 27.8437 121.319 37.1463 109.579 47.839C118.043 45.8435 126.876 46.0422 135.241 48.4164C135.455 30.8804 125.147 20.7224 107.718 15.4188Z" fill="url(#paint9_linear_6005_4230)"/>
<path d="M87.3177 45.3155C91.7822 45.3155 95.4013 41.6963 95.4013 37.2319C95.4013 32.7674 91.7822 29.1482 87.3177 29.1482C82.8532 29.1482 79.234 32.7674 79.234 37.2319C79.234 41.6963 82.8532 45.3155 87.3177 45.3155Z" fill="white"/>
<path d="M85.2214 42.8134C90.2764 42.8134 94.3743 38.7155 94.3743 33.6605C94.3743 28.6055 90.2764 24.5076 85.2214 24.5076C80.1664 24.5076 76.0685 28.6055 76.0685 33.6605C76.0685 38.7155 80.1664 42.8134 85.2214 42.8134Z" fill="#1EA5FC"/>
<path d="M87.3167 42.8136C91.4505 42.8136 94.8016 39.4625 94.8016 35.3288C94.8016 31.195 91.4505 27.8439 87.3167 27.8439C83.1829 27.8439 79.8318 31.195 79.8318 35.3288C79.8318 39.4625 83.1829 42.8136 87.3167 42.8136Z" fill="#322E2F"/>
<path d="M91.6148 32.5271C92.9494 32.5271 94.0314 31.4451 94.0314 30.1105C94.0314 28.7759 92.9494 27.694 91.6148 27.694C90.2802 27.694 89.1982 28.7759 89.1982 30.1105C89.1982 31.4451 90.2802 32.5271 91.6148 32.5271Z" fill="white"/>
<defs>
<linearGradient id="paint0_linear_6005_4230" x1="6.65982" y1="13.8137" x2="38.8014" y2="57.8861" gradientUnits="userSpaceOnUse">
<stop stop-color="#1158C4"/>
<stop offset="0.744776" stop-color="#1EA5FC"/>
</linearGradient>
<linearGradient id="paint1_linear_6005_4230" x1="14.1037" y1="35.8417" x2="35.4303" y2="61.8533" gradientUnits="userSpaceOnUse">
<stop stop-color="#1158C4"/>
<stop offset="0.744776" stop-color="#1EA5FC"/>
</linearGradient>
<linearGradient id="paint2_linear_6005_4230" x1="37.0972" y1="45.2816" x2="102.79" y2="134.001" gradientUnits="userSpaceOnUse">
<stop stop-color="#F21685"/>
<stop offset="1" stop-color="#FFF446"/>
</linearGradient>
<linearGradient id="paint3_linear_6005_4230" x1="84.8949" y1="152.517" x2="31.1008" y2="48.8091" gradientUnits="userSpaceOnUse">
<stop stop-color="#EB0D77"/>
<stop offset="1" stop-color="#F3E56F"/>
</linearGradient>
<linearGradient id="paint4_linear_6005_4230" x1="135.369" y1="47.5609" x2="131.285" y2="46.3847" gradientUnits="userSpaceOnUse">
<stop stop-color="#EB0D77"/>
<stop offset="0.1" stop-color="#EB1A77"/>
<stop offset="0.29" stop-color="#ED3C75"/>
<stop offset="0.54" stop-color="#EF7373"/>
<stop offset="0.85" stop-color="#F2BE70"/>
<stop offset="1" stop-color="#F3E56F"/>
</linearGradient>
<linearGradient id="paint5_linear_6005_4230" x1="57.5572" y1="96.43" x2="112.41" y2="134.35" gradientUnits="userSpaceOnUse">
<stop stop-color="#1158C3"/>
<stop offset="0.744776" stop-color="#1EA5FC"/>
</linearGradient>
<linearGradient id="paint6_linear_6005_4230" x1="93.0074" y1="50.3964" x2="109.536" y2="72.3433" gradientUnits="userSpaceOnUse">
<stop stop-color="#EB0D77"/>
<stop offset="1" stop-color="#F3E56F"/>
</linearGradient>
<linearGradient id="paint7_linear_6005_4230" x1="110.822" y1="42.1068" x2="126.696" y2="78.0872" gradientUnits="userSpaceOnUse">
<stop stop-color="#F21685"/>
<stop offset="1" stop-color="#FFF446"/>
</linearGradient>
<linearGradient id="paint8_linear_6005_4230" x1="90.9527" y1="70.5073" x2="76.6886" y2="13.2373" gradientUnits="userSpaceOnUse">
<stop stop-color="#73A8BD"/>
<stop offset="0.14" stop-color="#80B0C3"/>
<stop offset="0.41" stop-color="#A2C5D3"/>
<stop offset="0.77" stop-color="#D8E7ED"/>
<stop offset="1" stop-color="white"/>
</linearGradient>
<linearGradient id="paint9_linear_6005_4230" x1="110.082" y1="22.5741" x2="136.912" y2="35.2958" gradientUnits="userSpaceOnUse">
<stop stop-color="#1158C3"/>
<stop offset="0.744776" stop-color="#1EA5FC"/>
</linearGradient>
</defs>
</svg>
