<svg width="68" height="68" viewBox="0 0 68 68" fill="none" xmlns="http://www.w3.org/2000/svg">
<rect width="67.5" height="67.5" rx="33.75" fill="#038FE9"/>
<rect x="0.5625" y="0.5625" width="66.375" height="66.375" rx="33.1875" stroke="white" stroke-opacity="0.12" stroke-width="1.125"/>
<path d="M36.2706 22.95C38.8552 22.95 40.9506 25.0453 40.9506 27.63V27.8791L46.5146 24.5411C47.2345 24.109 48.1506 24.6275 48.1506 25.4671V42.03C48.1506 42.8694 47.2347 43.388 46.5149 42.956L40.9506 39.618V39.87C40.9506 42.4546 38.8552 44.55 36.2706 44.55H24.0306C21.4459 44.55 19.3506 42.4546 19.3506 39.87V27.63C19.3506 25.0453 21.4459 22.95 24.0306 22.95H36.2706ZM36.2706 25.11H24.0306C22.6388 25.11 21.5106 26.2382 21.5106 27.63V39.87C21.5106 41.2617 22.6388 42.39 24.0306 42.39H36.2706C37.6623 42.39 38.7906 41.2617 38.7906 39.87V27.63C38.7906 26.2382 37.6623 25.11 36.2706 25.11ZM45.9906 27.3752L40.9506 30.4012V37.0985L45.9906 40.1225V27.3752Z" fill="white"/>
</svg>
